#!OML:ASF F:\VICON\USERDATA\INSTALL\rory3\rory3.ASF
:FULLY-SPECIFIED
:DEGREES
2555
root -1.03931 16.9993 -3.47382 -180.693 219.65 -183.737
lowerback 23.1004 1.35661 -0.464235
upperback 8.31928 1.39208 0.117562
thorax -3.776 0.562599 0.0421379
lowerneck -10.5364 -1.21712 -4.85563
upperneck -2.30207 -1.14322 2.92957
head 1.1217 -0.505413 1.71763
rclavicle 6.16232e-014 1.82882e-014
rhumerus -11.1436 39.391 -84.3287
rradius 36.8843
rwrist -7.38968
rhand -26.7483 8.59756
rfingers 7.12502
rthumb -0.176946 -21.3821
lclavicle 6.16232e-014 1.82882e-014
lhumerus 2.19906 -49.8966 83.0829
lradius 25.1881
lwrist -15.581
lhand -15.8279 20.6403
lfingers 7.12502
lthumb 10.3662 50.3648
rfemur -25.2407 3.4626 9.15852
rtibia 53.1768
rfoot -19.6398 -23.0767
rtoes -10.8925
lfemur -32.8748 8.66885 -11.6578
ltibia 58.7359
lfoot -18.9923 5.4366
ltoes -0.493523
2556
root -1.03752 17.0452 -3.38802 -180.727 219.623 -183.888
lowerback 22.54 1.27146 -0.387237
upperback 8.20308 1.31213 0.104261
thorax -3.62017 0.529247 0.0121173
lowerneck -10.2161 -1.22724 -5.16198
upperneck -2.45822 -1.13915 3.22553
head 1.02344 -0.496741 1.8683
rclavicle -2.26615e-014 -2.06736e-014
rhumerus -11.9223 38.5356 -84.6017
rradius 37.5211
rwrist -6.96689
rhand -27.3792 9.0393
rfingers 7.12502
rthumb -0.786355 -20.939
lclavicle -2.26615e-014 -2.06736e-014
lhumerus 1.45715 -49.0593 83.9548
lradius 25.2752
lwrist -16.9213
lhand -15.7025 21.2109
lfingers 7.12502
lthumb 10.4871 50.9293
rfemur -24.4336 3.81513 9.18738
rtibia 52.4483
rfoot -19.4939 -23.5036
rtoes -10.799
lfemur -32.1751 8.54055 -11.6796
ltibia 58.2692
lfoot -19.1873 5.4661
ltoes -0.882563
2557
root -1.03247 17.0932 -3.30677 -180.716 219.563 -183.99
lowerback 22.0386 1.20865 -0.34426
upperback 8.00916 1.25358 0.0644242
thorax -3.5768 0.507289 -0.0347328
lowerneck -10.0239 -1.23695 -5.30658
upperneck -2.4394 -1.14697 3.42759
head 1.00132 -0.496987 1.96027
rclavicle -7.99114e-014 5.08889e-014
rhumerus -12.6616 37.5855 -84.9086
rradius 37.9798
rwrist -6.53555
rhand -27.6653 9.27792
rfingers 7.12502
rthumb -1.06268 -20.6992
lclavicle -7.99114e-014 5.08889e-014
lhumerus 0.685875 -48.408 84.7751
lradius 25.4543
lwrist -17.8667
lhand -13.0694 20.8504
lfingers 7.12502
lthumb 13.0263 50.4237
rfemur -23.7343 4.19393 9.17008
rtibia 51.7182
rfoot -18.9341 -23.9902
rtoes -11.4297
lfemur -31.6059 8.38518 -11.7664
ltibia 57.7751
lfoot -19.2418 5.54172
ltoes -0.541762
2558
root -1.02622 17.1444 -3.22635 -180.624 219.488 -184.198
lowerback 21.545 1.13817 -0.24272
upperback 7.8285 1.19679 0.0500698
thorax -3.52071 0.486073 -0.088448
lowerneck -9.78382 -1.27391 -5.40961
upperneck -2.58222 -1.1975 3.61577
head 0.920072 -0.51925 2.03781
rclavicle -7.61345e-014 1.19271e-014
rhumerus -13.1872 36.6888 -85.1318
rradius 38.2972
rwrist -6.11625
rhand -28.1509 8.96572
rfingers 7.12502
rthumb -1.53168 -21.0085
lclavicle -7.61345e-014 1.19271e-014
lhumerus -0.243867 -47.6845 85.7414
lradius 25.6121
lwrist -18.2947
lhand -14.7948 21.6654
lfingers 7.12502
lthumb 11.3627 51.3376
rfemur -23.0598 4.59579 9.25387
rtibia 51.0021
rfoot -18.43 -24.464
rtoes -11.7662
lfemur -31.1181 8.22298 -11.7349
ltibia 57.2597
lfoot -19.2248 5.51558
ltoes 1.28103
2559
root -1.02004 17.1981 -3.1415 -180.688 219.417 -184.276
lowerback 21.092 1.06295 -0.213834
upperback 7.67646 1.11506 0.00700146
thorax -3.45373 0.451257 -0.126365
lowerneck -9.5596 -1.30472 -5.50726
upperneck -2.68707 -1.23955 3.76133
head 0.852932 -0.538306 2.10121
rclavicle -3.49861e-014 -5.56597e-015
rhumerus -13.7259 35.624 -85.325
rradius 38.7038
rwrist -5.47416
rhand -28.6663 8.18855
rfingers 7.12502
rthumb -2.0294 -21.7815
lclavicle -3.49861e-014 -5.56597e-015
lhumerus -1.4267 -47.3295 86.8145
lradius 25.9314
lwrist -17.3973
lhand -12.7131 20.7888
lfingers 7.12502
lthumb 13.3697 50.3398
rfemur -22.3192 4.89572 9.23186
rtibia 50.3042
rfoot -17.7789 -24.959
rtoes -12.1983
lfemur -30.5295 8.0756 -11.7953
ltibia 56.7083
lfoot -19.2539 5.31399
ltoes 3.65784
2560
root -1.01365 17.2457 -3.05792 -180.837 219.394 -184.31
lowerback 20.7425 1.02145 -0.220209
upperback 7.54347 1.06621 -0.0589436
thorax -3.41805 0.43149 -0.177998
lowerneck -9.35849 -1.3462 -5.48721
upperneck -2.79174 -1.3059 3.76964
head 0.787726 -0.572588 2.09707
rclavicle 1.23246e-014 -6.75868e-015
rhumerus -14.2545 34.3909 -85.4994
rradius 39.1519
rwrist -4.80567
rhand -29.0341 7.74028
rfingers 7.12502
rthumb -2.3846 -22.2261
lclavicle 1.23246e-014 -6.75868e-015
lhumerus -2.32906 -46.4919 87.6355
lradius 26.2275
lwrist -17.3972
lhand -10.9711 20.2375
lfingers 7.12502
lthumb 15.0483 49.6705
rfemur -21.61 5.27215 9.17291
rtibia 49.7207
rfoot -16.7168 -25.5006
rtoes -13.2679
lfemur -29.8039 7.95281 -11.9257
ltibia 56.1351
lfoot -19.318 5.34182
ltoes 4.03505
2561
root -1.00357 17.3005 -2.97821 -180.86 219.327 -184.458
lowerback 20.3896 0.956968 -0.168155
upperback 7.41036 1.00194 -0.0622502
thorax -3.38019 0.40399 -0.192823
lowerneck -9.11956 -1.37123 -5.51787
upperneck -2.99945 -1.34614 3.70639
head 0.681355 -0.594395 2.07934
rclavicle 8.17005e-014 -2.50469e-014
rhumerus -14.4847 33.251 -85.5093
rradius 39.3966
rwrist -4.34926
rhand -29.4299 8.07202
rfingers 7.12502
rthumb -2.76694 -21.8898
lclavicle 8.17005e-014 -2.50469e-014
lhumerus -3.01947 -45.7409 88.3224
lradius 26.529
lwrist -16.7559
lhand -10.4601 20.0599
lfingers 7.12502
lthumb 15.5406 49.4554
rfemur -21.0011 5.78387 9.19236
rtibia 49.2628
rfoot -16.071 -25.863
rtoes -13.2138
lfemur -29.0754 7.80666 -11.999
ltibia 55.4704
lfoot -19.3153 5.51131
ltoes 3.61407
2562
root -0.990025 17.3476 -2.90276 -180.848 219.119 -184.599
lowerback 20.056 0.854988 -0.0598844
upperback 7.27073 0.900035 -0.0550639
thorax -3.35786 0.358597 -0.220747
lowerneck -9.10699 -1.40089 -5.55511
upperneck -3.00954 -1.38236 3.63438
head 0.677059 -0.613245 2.06099
rclavicle -4.41302e-014 9.54166e-015
rhumerus -14.4719 32.0666 -85.3787
rradius 39.4407
rwrist -3.97323
rhand -29.8679 8.4433
rfingers 7.12502
rthumb -3.18988 -21.5126
lclavicle -4.41302e-014 9.54166e-015
lhumerus -3.66716 -45.7081 88.8582
lradius 27.0319
lwrist -15.4354
lhand -10.0989 20.2431
lfingers 7.12502
lthumb 15.8884 49.6113
rfemur -20.6091 6.34436 9.16584
rtibia 49.0083
rfoot -15.7075 -26.1331
rtoes -12.3502
lfemur -28.4136 7.6823 -12.1197
ltibia 54.7624
lfoot -19.2218 5.67496
ltoes 2.58836
2563
root -0.977628 17.3959 -2.82782 -180.908 218.994 -184.65
lowerback 19.7451 0.802416 -0.0541782
upperback 7.12862 0.841489 -0.055494
thorax -3.35057 0.333203 -0.208978
lowerneck -9.09618 -1.43454 -5.64537
upperneck -2.95938 -1.41908 3.61615
head 0.693856 -0.631317 2.07023
rclavicle 6.59965e-014 -2.54444e-014
rhumerus -14.7643 30.5923 -85.2841
rradius 39.8395
rwrist -3.27993
rhand -30.7229 8.17245
rfingers 7.12502
rthumb -4.01555 -21.7695
lclavicle 6.59965e-014 -2.54444e-014
lhumerus -4.38053 -45.8194 89.3389
lradius 27.6594
lwrist -14.1396
lhand -9.59774 20.2957
lfingers 7.12502
lthumb 16.371 49.6248
rfemur -20.2962 7.13446 9.01513
rtibia 48.8506
rfoot -15.7296 -26.2027
rtoes -9.88045
lfemur -27.6134 7.64205 -12.3434
ltibia 53.9813
lfoot -19.1342 6.00534
ltoes 0.449637
2564
root -0.967155 17.4449 -2.75534 -181.011 218.903 -184.613
lowerback 19.4477 0.777004 -0.175806
upperback 6.98026 0.793724 -0.0737756
thorax -3.35789 0.311953 -0.14673
lowerneck -8.95854 -1.46253 -5.71448
upperneck -3.04203 -1.45619 3.58995
head 0.646014 -0.650147 2.07261
rclavicle 7.55382e-015 3.97569e-016
rhumerus -15.3505 29.0212 -85.2518
rradius 40.6722
rwrist -2.55063
rhand -31.875 7.52867
rfingers 7.12502
rthumb -5.12801 -22.3893
lclavicle 7.55382e-015 3.97569e-016
lhumerus -5.18679 -45.6002 89.8766
lradius 28.2622
lwrist -13.1336
lhand -7.09478 17.9276
lfingers 7.12502
lthumb 18.7797 47.0411
rfemur -19.9355 7.90688 8.80625
rtibia 48.6987
rfoot -15.781 -26.272
rtoes -6.9919
lfemur -26.8458 7.52746 -12.5859
ltibia 53.2074
lfoot -19.1209 6.10452
ltoes 0.0923774
